<?xml version="1.0" standalone="no"?><!DOCTYPE svg PUBLIC "-//W3C//DTD SVG 1.1//EN" "http://www.w3.org/Graphics/SVG/1.1/DTD/svg11.dtd"><svg t="1552986369568" class="icon" style="" viewBox="0 0 1024 1024" version="1.1" xmlns="http://www.w3.org/2000/svg" p-id="3746" xmlns:xlink="http://www.w3.org/1999/xlink" width="200" height="200"><defs><style type="text/css"></style></defs><path d="M513.862929 97.54871c-247.27171 0-447.725114 200.453405-447.725114 447.725114 0 247.270686 200.453405 447.724091 447.725114 447.724091 247.270686 0 447.724091-200.454428 447.724091-447.724091C961.58702 298.002115 761.133615 97.54871 513.862929 97.54871zM514.292718 906.080334l0-98.445126c-148.791791 0-270.50997-118.061906-270.50997-262.383896 0-52.467979 16.882506-98.345866 40.556695-141.02899l50.745754 49.222051c-13.536294 26.258037-23.674189 59.008952-23.674189 91.807962 0 108.279099 91.301426 196.786898 202.88171 196.786898l0-98.344842 135.303592 131.144876L514.292718 906.080334zM743.388463 686.277232l-50.744731-49.172933c13.535271-26.258037 23.673166-59.056024 23.673166-91.854011 0-108.231003-91.301426-196.792015-202.880687-196.792015l0 98.445126L378.181737 315.66131l135.254473-131.193994 0 98.394984c148.786675 0 270.5069 118.063953 270.5069 262.387989C783.943111 597.765339 767.062652 643.691321 743.388463 686.277232z" p-id="3747"></path></svg>